<svg width="461" height="78" viewBox="0 0 461 78" fill="none" xmlns="http://www.w3.org/2000/svg">
<rect x="0.5" y="0.5" width="460" height="77" rx="38.5" fill="white"/>
<rect x="0.5" y="0.5" width="460" height="77" rx="38.5" stroke="#595959"/>
<path d="M171.82 32.02H174.4C174.4 33.46 174.287 34.8333 174.06 36.14C173.847 37.4467 173.447 38.6867 172.86 39.86C172.273 41.0333 171.44 42.1333 170.36 43.16C169.28 44.1867 167.873 45.14 166.14 46.02L164.72 43.98C166.16 43.26 167.34 42.4933 168.26 41.68C169.193 40.8533 169.913 39.9733 170.42 39.04C170.94 38.0933 171.3 37.0667 171.5 35.96C171.713 34.8533 171.82 33.6533 171.82 32.36V32.02ZM165.88 32.02H173.38V34.14H165.88V32.02ZM171.88 36.56V38.6L165.24 39.24L164.9 36.98L171.88 36.56ZM176.64 30.22H179.32V48.74H176.64V30.22ZM178.64 37.32H181.9V39.5H178.64V37.32ZM190.218 32.02H192.798C192.798 33.46 192.685 34.8333 192.458 36.14C192.245 37.4467 191.845 38.6867 191.258 39.86C190.672 41.0333 189.838 42.1333 188.758 43.16C187.678 44.1867 186.272 45.14 184.538 46.02L183.118 43.98C184.558 43.26 185.738 42.4933 186.658 41.68C187.592 40.8533 188.312 39.9733 188.818 39.04C189.338 38.0933 189.698 37.0667 189.898 35.96C190.112 34.8533 190.218 33.6533 190.218 32.36V32.02ZM184.278 32.02H191.778V34.14H184.278V32.02ZM190.278 36.56V38.6L183.638 39.24L183.298 36.98L190.278 36.56ZM195.038 30.22H197.718V48.74H195.038V30.22ZM197.038 37.32H200.298V39.5H197.038V37.32ZM208.657 40.66H211.297V44.88H208.657V40.66ZM209.977 31.2C211.297 31.2 212.477 31.4133 213.517 31.84C214.57 32.2533 215.397 32.84 215.997 33.6C216.597 34.36 216.897 35.26 216.897 36.3C216.897 37.3267 216.597 38.2267 215.997 39C215.397 39.7733 214.57 40.3733 213.517 40.8C212.477 41.2133 211.297 41.42 209.977 41.42C208.67 41.42 207.49 41.2133 206.437 40.8C205.397 40.3733 204.57 39.7733 203.957 39C203.357 38.2267 203.057 37.3267 203.057 36.3C203.057 35.26 203.357 34.36 203.957 33.6C204.57 32.84 205.397 32.2533 206.437 31.84C207.49 31.4133 208.67 31.2 209.977 31.2ZM209.977 33.3C209.137 33.3 208.39 33.42 207.737 33.66C207.097 33.9 206.59 34.24 206.217 34.68C205.857 35.12 205.677 35.66 205.677 36.3C205.677 36.9267 205.857 37.4667 206.217 37.92C206.59 38.36 207.097 38.7 207.737 38.94C208.39 39.18 209.137 39.3 209.977 39.3C210.83 39.3 211.577 39.18 212.217 38.94C212.87 38.7 213.377 38.36 213.737 37.92C214.097 37.4667 214.277 36.9267 214.277 36.3C214.277 35.66 214.097 35.12 213.737 34.68C213.377 34.24 212.87 33.9 212.217 33.66C211.577 33.42 210.83 33.3 209.977 33.3ZM201.617 44.46H218.397V46.62H201.617V44.46ZM219.975 40.08H236.735V42.18H219.975V40.08ZM227.035 37.88H229.675V40.62H227.035V37.88ZM221.855 43.28H234.695V48.78H232.035V45.38H221.855V43.28ZM222.075 36.72H234.975V38.74H222.075V36.72ZM222.075 30.68H234.815V32.7H224.715V37.76H222.075V30.68ZM223.955 33.72H234.415V35.66H223.955V33.72ZM246.774 31.18C248.08 31.18 249.254 31.4 250.294 31.84C251.347 32.28 252.174 32.9 252.774 33.7C253.387 34.5 253.694 35.44 253.694 36.52C253.694 37.6 253.387 38.5467 252.774 39.36C252.174 40.16 251.347 40.78 250.294 41.22C249.254 41.66 248.08 41.88 246.774 41.88C245.48 41.88 244.307 41.66 243.254 41.22C242.214 40.78 241.387 40.16 240.774 39.36C240.16 38.5467 239.854 37.6 239.854 36.52C239.854 35.44 240.16 34.5 240.774 33.7C241.387 32.9 242.214 32.28 243.254 31.84C244.307 31.4 245.48 31.18 246.774 31.18ZM246.774 33.34C245.947 33.34 245.207 33.4667 244.554 33.72C243.9 33.9733 243.387 34.34 243.014 34.82C242.654 35.2867 242.474 35.8533 242.474 36.52C242.474 37.1867 242.654 37.76 243.014 38.24C243.387 38.7067 243.9 39.0667 244.554 39.32C245.207 39.5733 245.947 39.7 246.774 39.7C247.627 39.7 248.374 39.5733 249.014 39.32C249.667 39.0667 250.174 38.7067 250.534 38.24C250.907 37.76 251.094 37.1867 251.094 36.52C251.094 35.8533 250.907 35.2867 250.534 34.82C250.174 34.34 249.667 33.9733 249.014 33.72C248.374 33.4667 247.627 33.34 246.774 33.34ZM238.414 44.36H255.194V46.54H238.414V44.36ZM256.812 44.58H273.592V46.74H256.812V44.58ZM263.852 41.06H266.492V45.44H263.852V41.06ZM258.712 31.44H271.692V37.62H261.372V40.72H258.732V35.54H269.052V33.56H258.712V31.44ZM258.732 39.68H272.112V41.8H258.732V39.68ZM280.172 44.58H296.952V46.74H280.172V44.58ZM287.212 41.06H289.852V45.44H287.212V41.06ZM282.072 31.44H295.052V37.62H284.732V40.72H282.092V35.54H292.412V33.56H282.072V31.44ZM282.092 39.68H295.472V41.8H282.092V39.68ZM300.29 31.94H312.01V34.06H300.29V31.94ZM298.57 44.2H315.33V46.36H298.57V44.2ZM310.61 31.94H313.27V34.14C313.27 35.0067 313.257 35.8867 313.23 36.78C313.217 37.6733 313.163 38.6267 313.07 39.64C312.99 40.6533 312.83 41.8 312.59 43.08L309.93 42.84C310.17 41.6533 310.33 40.56 310.41 39.56C310.503 38.56 310.557 37.62 310.57 36.74C310.597 35.8467 310.61 34.98 310.61 34.14V31.94ZM329.688 30.26H332.348V43.56H329.688V30.26ZM320.008 46.32H332.828V48.46H320.008V46.32ZM320.008 42.24H322.668V47.2H320.008V42.24ZM322.268 31.44C323.215 31.44 324.068 31.64 324.828 32.04C325.588 32.44 326.188 32.9933 326.628 33.7C327.082 34.4067 327.308 35.22 327.308 36.14C327.308 37.0333 327.082 37.84 326.628 38.56C326.188 39.2667 325.588 39.8267 324.828 40.24C324.068 40.64 323.215 40.84 322.268 40.84C321.322 40.84 320.468 40.64 319.708 40.24C318.948 39.8267 318.342 39.2667 317.888 38.56C317.448 37.84 317.228 37.0333 317.228 36.14C317.228 35.22 317.448 34.4067 317.888 33.7C318.342 32.9933 318.948 32.44 319.708 32.04C320.468 31.64 321.322 31.44 322.268 31.44ZM322.268 33.72C321.815 33.72 321.402 33.82 321.028 34.02C320.655 34.2067 320.362 34.48 320.148 34.84C319.935 35.1867 319.828 35.62 319.828 36.14C319.828 36.6333 319.935 37.06 320.148 37.42C320.362 37.7667 320.655 38.04 321.028 38.24C321.402 38.4267 321.815 38.52 322.268 38.52C322.722 38.52 323.135 38.4267 323.508 38.24C323.882 38.04 324.175 37.7667 324.388 37.42C324.602 37.06 324.708 36.6333 324.708 36.14C324.708 35.62 324.602 35.1867 324.388 34.84C324.175 34.48 323.882 34.2067 323.508 34.02C323.135 33.82 322.722 33.72 322.268 33.72ZM347.227 30.26H349.887V48.78H347.227V30.26ZM349.287 37.48H352.547V39.68H349.287V37.48ZM335.267 32.98H346.067V35.1H335.267V32.98ZM340.707 36.16C341.6 36.16 342.4 36.3533 343.107 36.74C343.814 37.1133 344.367 37.6267 344.767 38.28C345.18 38.9333 345.387 39.6933 345.387 40.56C345.387 41.4267 345.18 42.1933 344.767 42.86C344.367 43.5133 343.814 44.0333 343.107 44.42C342.414 44.7933 341.614 44.98 340.707 44.98C339.814 44.98 339.007 44.7933 338.287 44.42C337.58 44.0333 337.02 43.5133 336.607 42.86C336.207 42.1933 336.007 41.4267 336.007 40.56C336.007 39.6933 336.207 38.9333 336.607 38.28C337.02 37.6267 337.58 37.1133 338.287 36.74C339.007 36.3533 339.814 36.16 340.707 36.16ZM340.707 38.32C340.28 38.32 339.907 38.4067 339.587 38.58C339.267 38.7533 339.014 39.0067 338.827 39.34C338.64 39.6733 338.547 40.08 338.547 40.56C338.547 41.0267 338.64 41.4333 338.827 41.78C339.014 42.1133 339.267 42.3733 339.587 42.56C339.907 42.7333 340.28 42.82 340.707 42.82C341.12 42.82 341.487 42.7333 341.807 42.56C342.127 42.3733 342.38 42.1133 342.567 41.78C342.754 41.4333 342.847 41.0267 342.847 40.56C342.847 40.08 342.754 39.6733 342.567 39.34C342.38 39.0067 342.127 38.7533 341.807 38.58C341.487 38.4067 341.12 38.32 340.707 38.32ZM339.347 30.56H342.027V33.8H339.347V30.56ZM366.525 30.24H369.185V48.76H366.525V30.24ZM361.065 32.16H363.685C363.685 33.5733 363.545 34.9267 363.265 36.22C362.999 37.5 362.545 38.7067 361.905 39.84C361.279 40.9733 360.412 42.0267 359.305 43C358.212 43.96 356.845 44.84 355.205 45.64L353.805 43.54C355.592 42.6733 357.012 41.72 358.065 40.68C359.132 39.6267 359.899 38.44 360.365 37.12C360.832 35.7867 361.065 34.2933 361.065 32.64V32.16ZM354.805 32.16H362.305V34.28H354.805V32.16Z" fill="#737373"/>
<path d="M84 23.3335C74.335 23.3335 66.5 29.676 66.5 37.5002C66.5 42.4918 69.6967 46.871 74.515 49.3943L72.6658 55.5585C72.5533 55.9327 72.9708 56.2418 73.2958 56.0252L80.3142 51.346C81.5033 51.5527 82.735 51.6668 84 51.6668C93.665 51.6668 101.5 45.3243 101.5 37.5002C101.5 29.676 93.665 23.3335 84 23.3335Z" fill="#263238"/>
<path d="M76.4998 35.0002H71.4998C71.0398 35.0002 70.6665 34.6268 70.6665 34.1668C70.6665 33.7068 71.0398 33.3335 71.4998 33.3335H76.4998C76.9598 33.3335 77.3332 33.7068 77.3332 34.1668C77.3332 34.6268 76.9598 35.0002 76.4998 35.0002Z" fill="#FFCA28"/>
<path d="M84.8335 41.6668V34.1668C84.8335 33.7068 85.2068 33.3335 85.6668 33.3335C86.1268 33.3335 86.5002 33.7068 86.5002 34.1668V41.6668C86.5002 42.1268 86.1268 42.5002 85.6668 42.5002C85.2068 42.5002 84.8335 42.1268 84.8335 41.6668Z" fill="#FFCA28"/>
<path d="M90.6665 41.6668V34.1668C90.6665 33.7068 91.0398 33.3335 91.4998 33.3335C91.9598 33.3335 92.3332 33.7068 92.3332 34.1668V41.6668C92.3332 42.1268 91.9598 42.5002 91.4998 42.5002C91.0398 42.5002 90.6665 42.1268 90.6665 41.6668Z" fill="#FFCA28"/>
<path d="M91.1842 37.6724L95.2792 33.5774C95.605 33.2515 96.1325 33.2515 96.4575 33.5774C96.7833 33.9032 96.7833 34.4307 96.4575 34.7557L92.3625 38.8507C92.0367 39.1766 91.5092 39.1766 91.1842 38.8507C90.8592 38.5257 90.8592 37.9982 91.1842 37.6724Z" fill="#FFCA28"/>
<path d="M94.0648 37.2209L97.1548 41.1518C97.4389 41.5134 97.3764 42.0376 97.0148 42.3218C96.6531 42.6059 96.1289 42.5434 95.8448 42.1818L92.7548 38.2509C92.4706 37.8893 92.5331 37.3651 92.8948 37.0809C93.2564 36.7968 93.7806 36.8593 94.0648 37.2209Z" fill="#FFCA28"/>
<path d="M89.0002 42.5002H85.6668C85.2068 42.5002 84.8335 42.1268 84.8335 41.6668C84.8335 41.2068 85.2068 40.8335 85.6668 40.8335H89.0002C89.4602 40.8335 89.8335 41.2068 89.8335 41.6668C89.8335 42.1268 89.4602 42.5002 89.0002 42.5002Z" fill="#FFCA28"/>
<path d="M83.9442 41.3681L81.2601 33.8681C81.1392 33.5523 80.8459 33.3589 80.5284 33.3439C80.4359 33.3398 80.0784 33.3414 79.9942 33.3431C79.6676 33.3489 79.3634 33.5439 79.2392 33.8681L76.5551 41.3681C76.3901 41.7981 76.6051 42.2798 77.0351 42.4448C77.4651 42.6098 77.9467 42.3948 78.1117 41.9648L78.5167 40.8331H81.9834L82.3884 41.9648C82.5534 42.3948 83.0351 42.6089 83.4651 42.4448C83.8951 42.2806 84.1092 41.7973 83.9442 41.3681ZM79.1134 39.1664L80.2501 35.9898L81.3867 39.1664H79.1134Z" fill="#FFCA28"/>
<path d="M74.8332 35H73.1665V41.6667C73.1665 42.1267 73.5398 42.5 73.9998 42.5C74.4598 42.5 74.8332 42.1267 74.8332 41.6667V35Z" fill="#FFCA28"/>
</svg>
