<svg width="30" height="30" viewBox="0 0 30 30" fill="currentColor" xmlns="http://www.w3.org/2000/svg">
<path d="M11.1329 20.625H18.8673C18.9962 20.625 19.1017 20.5195 19.1017 20.3906V17.9297C19.1017 17.8008 18.9962 17.6953 18.8673 17.6953H17.6954C17.5665 17.6953 17.461 17.8008 17.461 17.9297V18.9844H12.5392V17.9297C12.5392 17.8008 12.4337 17.6953 12.3048 17.6953H11.1329C11.004 17.6953 10.8985 17.8008 10.8985 17.9297V20.3906C10.8985 20.5195 11.004 20.625 11.1329 20.625ZM21.0939 17.0215C21.0939 17.3323 21.2173 17.6304 21.4371 17.8501C21.6569 18.0699 21.9549 18.1934 22.2657 18.1934C22.5765 18.1934 22.8746 18.0699 23.0944 17.8501C23.3141 17.6304 23.4376 17.3323 23.4376 17.0215C23.4376 16.7107 23.3141 16.4126 23.0944 16.1928C22.8746 15.9731 22.5765 15.8496 22.2657 15.8496C21.9549 15.8496 21.6569 15.9731 21.4371 16.1928C21.2173 16.4126 21.0939 16.7107 21.0939 17.0215ZM28.0958 12.1113L27.4015 10.8984C27.3703 10.845 27.3192 10.806 27.2593 10.7901C27.1995 10.7742 27.1358 10.7826 27.0821 10.8135L25.5968 11.6807L23.3028 5.34668C23.1817 4.96873 22.9436 4.63906 22.6229 4.40525C22.3022 4.17144 21.9155 4.0456 21.5187 4.0459H8.82433C7.80773 4.0459 6.90539 4.70215 6.59191 5.67188L4.40636 11.6836L2.91808 10.8164C2.86442 10.7855 2.80072 10.7771 2.74089 10.793C2.68106 10.809 2.62996 10.8479 2.59874 10.9014L1.90441 12.1113C1.83996 12.2227 1.87804 12.3633 1.98937 12.4277L3.7589 13.459L3.3341 14.6309C3.29894 14.7246 3.28136 14.8242 3.28136 14.9238V25.125C3.28136 25.585 3.62707 25.957 4.05187 25.957H6.03234C6.39269 25.957 6.70617 25.6846 6.78234 25.3037L7.00792 24.1992H22.9923L23.2179 25.3037C23.297 25.6846 23.6075 25.957 23.9679 25.957H25.9484C26.3732 25.957 26.7189 25.585 26.7189 25.125V14.9238C26.7189 14.8242 26.7013 14.7246 26.6661 14.6309L26.2413 13.459L28.0079 12.4277C28.0611 12.397 28.1001 12.3467 28.1165 12.2875C28.133 12.2283 28.1255 12.1651 28.0958 12.1113ZM24.6095 15.1465V22.0898H5.39074V15.1465L5.84777 13.8867H24.1525L24.6095 15.1465ZM8.57531 6.38965L8.58996 6.35156L8.60167 6.31348C8.6339 6.2168 8.72179 6.15234 8.82433 6.15234H21.3517L23.5607 12.2461H6.44542L8.57531 6.38965ZM6.56261 17.0215C6.56261 17.3323 6.68608 17.6304 6.90585 17.8501C7.12562 18.0699 7.42369 18.1934 7.73449 18.1934C8.04529 18.1934 8.34336 18.0699 8.56313 17.8501C8.7829 17.6304 8.90636 17.3323 8.90636 17.0215C8.90636 16.7107 8.7829 16.4126 8.56313 16.1928C8.34336 15.9731 8.04529 15.8496 7.73449 15.8496C7.42369 15.8496 7.12562 15.9731 6.90585 16.1928C6.68608 16.4126 6.56261 16.7107 6.56261 17.0215Z" fill="currentColor"/>
</svg>
