<svg width="30" height="30" viewBox="0 0 30 30" fill="currentColor" xmlns="http://www.w3.org/2000/svg">
<path d="M27.7296 14.7945L16.4093 3.48005L15.6505 2.72127C15.4776 2.54952 15.2438 2.45313 15.0001 2.45312C14.7564 2.45312 14.5226 2.54952 14.3497 2.72127L2.27063 14.7945C2.09347 14.971 1.95347 15.1811 1.85887 15.4126C1.76427 15.6441 1.717 15.8921 1.71985 16.1422C1.73157 17.1734 2.58997 17.9967 3.62122 17.9967H4.86633V27.5386H25.1339V17.9967H26.4054C26.9064 17.9967 27.3781 17.8004 27.7325 17.4459C27.9071 17.2719 28.0454 17.065 28.1394 16.8372C28.2335 16.6094 28.2814 16.3652 28.2804 16.1187C28.2804 15.6207 28.0841 15.149 27.7296 14.7945ZM16.6407 25.4293H13.3595V19.4527H16.6407V25.4293ZM23.0245 15.8873V25.4293H18.5157V18.7496C18.5157 18.1021 17.9913 17.5777 17.3439 17.5777H12.6564C12.0089 17.5777 11.4845 18.1021 11.4845 18.7496V25.4293H6.97571V15.8873H4.16321L15.0031 5.05623L15.6798 5.73298L25.84 15.8873H23.0245Z" fill="currentColor"/>
</svg>
