<svg width="30" height="30" viewBox="0 0 30 30" fill="currentColor" xmlns="http://www.w3.org/2000/svg">
<path d="M15.0003 3.125C16.4704 3.12455 17.902 3.59536 19.0849 4.46834C20.2677 5.34131 21.1396 6.57047 21.5725 7.9754C22.0055 9.38034 21.9767 10.887 21.4903 12.2744C21.004 13.6617 20.0857 14.8567 18.8703 15.6837C20.9799 16.4575 22.8096 17.8449 24.1239 19.6674C25.4383 21.4899 26.1771 23.664 26.2453 25.91C26.2517 26.0347 26.2331 26.1593 26.1906 26.2767C26.1482 26.3941 26.0827 26.5018 25.9981 26.5936C25.9134 26.6853 25.8113 26.7593 25.6977 26.811C25.5841 26.8628 25.4613 26.8913 25.3365 26.895C25.2118 26.8986 25.0875 26.8773 24.9711 26.8323C24.8546 26.7873 24.7484 26.7195 24.6585 26.6329C24.5686 26.5463 24.4969 26.4426 24.4476 26.3279C24.3984 26.2132 24.3725 26.0898 24.3716 25.965C24.2971 23.5293 23.2772 21.2183 21.528 19.5218C19.7788 17.8252 17.4377 16.8764 15.0009 16.8764C12.5641 16.8764 10.223 17.8252 8.47384 19.5218C6.72463 21.2183 5.70474 23.5293 5.63031 25.965C5.62285 26.2136 5.51692 26.4491 5.33583 26.6197C5.15474 26.7902 4.91332 26.8818 4.66468 26.8744C4.41604 26.8669 4.18055 26.761 4.01001 26.5799C3.83946 26.3988 3.74785 26.1574 3.75531 25.9087C3.82374 23.663 4.56267 21.4891 5.87701 19.6669C7.19134 17.8446 9.02093 16.4574 11.1303 15.6837C9.91491 14.8567 8.99666 13.6617 8.51031 12.2744C8.02396 10.887 7.99514 9.38034 8.42807 7.9754C8.861 6.57047 9.73289 5.34131 10.9158 4.46834C12.0986 3.59536 13.5302 3.12455 15.0003 3.125ZM10.0003 10C10.0003 11.3261 10.5271 12.5979 11.4648 13.5355C12.4025 14.4732 13.6742 15 15.0003 15C16.3264 15 17.5982 14.4732 18.5358 13.5355C19.4735 12.5979 20.0003 11.3261 20.0003 10C20.0003 8.67392 19.4735 7.40215 18.5358 6.46447C17.5982 5.52678 16.3264 5 15.0003 5C13.6742 5 12.4025 5.52678 11.4648 6.46447C10.5271 7.40215 10.0003 8.67392 10.0003 10Z" fill="currentColor"/>
</svg>
