<svg width="30" height="30" viewBox="0 0 30 30" fill="none" xmlns="http://www.w3.org/2000/svg">
<path d="M27.5721 0.981431C27.6621 0.979548 27.6621 0.979548 27.7539 0.977626C28.1407 0.975906 28.4496 0.997225 28.7545 1.25975C29.4765 2.21574 28.9494 4.46297 28.793 5.58991C28.4053 8.30308 27.657 10.9301 26.3673 13.3594C26.3472 13.3974 26.327 13.4355 26.3063 13.4747C25.6888 14.6326 24.9118 15.6769 24.0236 16.6406C23.9418 16.7334 23.86 16.8262 23.7782 16.9189C23.2878 17.4635 22.7675 17.9846 22.2071 18.457C22.1513 18.5064 22.0954 18.5558 22.0378 18.6067C21.0011 19.5195 19.8736 20.3128 18.6872 21.0175C18.6529 21.0396 18.6186 21.0616 18.5833 21.0843C18.4571 21.1523 18.4571 21.1523 18.2751 21.2067C18.0363 21.2963 17.9167 21.3636 17.754 21.5625C17.6333 22.0442 17.6967 22.5695 17.7211 23.0603C17.731 23.3325 17.7391 23.6048 17.7465 23.8772C17.7484 23.9422 17.7504 24.0072 17.7524 24.0742C17.7763 25.1554 17.4375 25.884 16.6993 26.6601C16.4107 26.9594 16.1181 27.2547 15.8245 27.5491C15.6877 27.6865 15.5515 27.8245 15.4153 27.9625C15.3279 28.0503 15.2405 28.138 15.153 28.2257C15.1126 28.2668 15.0722 28.308 15.0306 28.3503C14.7512 28.6284 14.5346 28.785 14.1285 28.7915C13.8231 28.7842 13.6614 28.7201 13.4181 28.5351C13.2375 28.2968 13.142 28.0889 13.071 27.7994C13.0619 27.7628 13.0527 27.7262 13.0432 27.6884C13.0134 27.5688 12.9846 27.4489 12.9557 27.3289C12.9351 27.2453 12.9144 27.1618 12.8937 27.0782C12.8395 26.8593 12.7862 26.6402 12.733 26.4211C12.6785 26.1971 12.6232 25.9733 12.568 25.7494C12.46 25.311 12.3528 24.8724 12.2462 24.4336C12.0558 24.4336 11.9838 24.4717 11.8141 24.5508C11.2252 24.7706 10.429 24.7751 9.83288 24.5727C9.2085 24.2749 8.73937 23.8924 8.25566 23.4059C8.1892 23.3397 8.1227 23.2736 8.05618 23.2075C7.91757 23.0695 7.7794 22.9311 7.64153 22.7924C7.46632 22.6161 7.28994 22.4411 7.1132 22.2665C6.97579 22.1303 6.83908 21.9935 6.70255 21.8565C6.63787 21.7918 6.57296 21.7273 6.50781 21.663C5.79478 20.9581 5.32144 20.24 5.31018 19.2187C5.31398 18.6743 5.41845 18.2339 5.68371 17.7539C5.64595 17.7476 5.60819 17.7412 5.56928 17.7347C5.1357 17.6592 4.71037 17.5613 4.28364 17.4541C4.21386 17.4366 4.14407 17.4191 4.07217 17.4011C3.92575 17.3643 3.77936 17.3273 3.633 17.2903C3.40933 17.2338 3.18543 17.1783 2.96151 17.1229C2.81871 17.0868 2.67592 17.0508 2.53315 17.0146C2.4665 16.9982 2.39984 16.9819 2.33117 16.965C1.90017 16.8543 1.59938 16.7624 1.3258 16.3953C1.20193 16.1537 1.18071 15.9101 1.23059 15.6445C1.33974 15.3988 1.45824 15.2185 1.64645 15.0273C1.69461 14.9781 1.74277 14.9288 1.79239 14.878C1.84439 14.8258 1.89639 14.7736 1.94996 14.7198C2.00397 14.6652 2.05798 14.6107 2.11362 14.5544C2.22793 14.4391 2.34258 14.3241 2.45747 14.2093C2.60315 14.0636 2.74759 13.9168 2.89174 13.7696C3.03111 13.6278 3.17177 13.4873 3.31227 13.3465C3.3632 13.2943 3.41413 13.2422 3.4666 13.1884C4.08389 12.5778 4.7476 12.2913 5.61273 12.2914C5.72298 12.2923 5.72298 12.2923 5.83546 12.2932C5.91161 12.2934 5.98776 12.2936 6.06622 12.2937C6.26745 12.2942 6.46867 12.2953 6.66989 12.2966C6.87572 12.2978 7.08155 12.2984 7.28737 12.299C7.69032 12.3002 8.09327 12.3022 8.49621 12.3047C8.5141 12.2495 8.53198 12.1943 8.55041 12.1374C8.60746 11.9705 8.67135 11.8374 8.76217 11.6872C8.79111 11.639 8.82005 11.5909 8.84986 11.5413C8.8806 11.4911 8.91133 11.4409 8.94299 11.3891C8.9747 11.3369 9.00642 11.2847 9.03909 11.2308C9.27796 10.8395 9.5234 10.4546 9.78527 10.0781C9.82886 10.0148 9.87244 9.95152 9.91734 9.88631C10.2958 9.34262 10.7071 8.82754 11.1329 8.3203C11.1684 8.27757 11.1684 8.27757 11.2046 8.23399C11.6444 7.70561 12.1082 7.20769 12.5951 6.72249C12.7077 6.61006 12.8195 6.49687 12.9313 6.38362C13.3984 5.91414 13.8843 5.4945 14.4142 5.09764C14.4913 5.03796 14.5683 4.97823 14.6454 4.91843C17.8602 2.51319 21.9387 1.37734 25.8986 1.05467C25.9731 1.04818 26.0477 1.04168 26.1245 1.03499C26.6066 0.998622 27.0888 0.987045 27.5721 0.981431ZM21.9728 3.69139C22.0493 3.86034 22.1308 3.98118 22.262 4.11189C22.2972 4.14721 22.3323 4.18254 22.3686 4.21894C22.4263 4.27602 22.4263 4.27602 22.4852 4.33426C22.5257 4.37487 22.5663 4.41549 22.6082 4.45733C22.7423 4.59139 22.8769 4.72504 23.0114 4.85869C23.1046 4.9516 23.1977 5.04454 23.2908 5.1375C23.5357 5.38204 23.7811 5.62623 24.0265 5.87035C24.2769 6.11954 24.5269 6.36907 24.777 6.61856C25.2677 7.10801 25.7588 7.59708 26.2501 8.08592C26.38 7.89114 26.4115 7.7513 26.4602 7.5231C26.4727 7.46478 26.4727 7.46478 26.4854 7.40528C26.5125 7.27704 26.5389 7.14868 26.5651 7.02025C26.5741 6.97617 26.5832 6.93209 26.5925 6.88668C26.8586 5.58261 27.0361 4.26139 27.0704 2.92967C25.3672 2.92967 23.6212 3.29385 21.9728 3.69139ZM15.4103 6.79686C15.3781 6.82221 15.3458 6.84756 15.3127 6.87368C14.7983 7.28236 14.3338 7.74418 13.8685 8.20677C13.8235 8.25132 13.8235 8.25132 13.7776 8.29677C13.3761 8.69504 13.0088 9.10766 12.6564 9.55077C12.6058 9.61098 12.5549 9.67094 12.5035 9.73044C11.0817 11.3883 9.50263 13.68 8.96496 15.8203C8.99248 16.0269 9.07236 16.126 9.21692 16.2723C9.25831 16.3146 9.29971 16.357 9.34236 16.4006C9.41093 16.4693 9.41093 16.4693 9.48089 16.5394C9.55278 16.6125 9.55278 16.6125 9.62613 16.687C9.78504 16.8482 9.94463 17.0087 10.1043 17.1691C10.187 17.2524 10.2697 17.3357 10.3523 17.419C10.6122 17.681 10.8726 17.9423 11.1333 18.2035C11.4022 18.4728 11.6699 18.7434 11.937 19.0145C12.1665 19.2472 12.3968 19.4791 12.6279 19.7103C12.7659 19.8484 12.9033 19.9869 13.0401 20.1261C13.1927 20.2813 13.3467 20.435 13.5012 20.5883C13.5462 20.6347 13.5912 20.6811 13.6376 20.729C13.888 20.9833 13.888 20.9833 14.2298 21.0376C14.41 20.9779 14.5835 20.9169 14.757 20.8397C14.8208 20.8115 14.8846 20.7832 14.9502 20.7542C15.0175 20.7236 15.0847 20.6931 15.1539 20.6616C15.259 20.6143 15.259 20.6143 15.3662 20.5659C17.02 19.8155 18.5584 18.8832 19.9806 17.7539C20.0353 17.7106 20.09 17.6673 20.1463 17.6227C20.5253 17.3179 20.8845 16.9944 21.2402 16.6632C21.3253 16.5847 21.4117 16.5077 21.4981 16.4307C23.1598 14.945 24.4001 13.1416 25.2943 11.1035C25.3191 11.0472 25.3438 10.9909 25.3693 10.9328C25.5336 10.5474 25.5336 10.5474 25.6056 10.1367C25.5261 9.99653 25.5261 9.99653 25.3954 9.87643C25.3474 9.82763 25.2993 9.77883 25.2498 9.72856C25.1961 9.67613 25.1423 9.6237 25.087 9.56968C25.0305 9.51314 24.9742 9.45652 24.9179 9.39981C24.7648 9.24611 24.6105 9.09372 24.4559 8.94154C24.2944 8.78225 24.1341 8.62183 23.9737 8.46155C23.7042 8.19263 23.4339 7.92449 23.1631 7.65686C22.8152 7.31297 22.4685 6.96787 22.1221 6.62237C21.8247 6.32569 21.5268 6.02952 21.2288 5.73346C21.1328 5.63808 21.0369 5.54264 20.941 5.4472C20.7905 5.29752 20.6397 5.14817 20.4887 4.99906C20.4066 4.91791 20.3248 4.83647 20.243 4.75502C20.1945 4.70721 20.1459 4.6594 20.0959 4.61015C20.0536 4.56826 20.0113 4.52637 19.9677 4.48321C19.2399 3.8641 16.0465 6.2903 15.4103 6.79686ZM4.76681 14.6709C4.73093 14.7066 4.69506 14.7423 4.65809 14.7791C4.62191 14.8157 4.58573 14.8524 4.54846 14.8901C4.51092 14.9272 4.47338 14.9643 4.4347 15.0025C4.39928 15.0381 4.36386 15.0737 4.32736 15.1103C4.29523 15.1426 4.2631 15.1748 4.23 15.2081C4.14788 15.2897 4.14788 15.2897 4.16028 15.4101C4.52415 15.5022 4.8881 15.594 5.25211 15.6855C5.37598 15.7167 5.49982 15.748 5.62365 15.7793C5.80147 15.8243 5.97936 15.869 6.15727 15.9137C6.2405 15.9348 6.2405 15.9348 6.32541 15.9564C6.37701 15.9693 6.42861 15.9822 6.48178 15.9955C6.52719 16.007 6.5726 16.0184 6.61939 16.0302C6.74685 16.0606 6.74685 16.0606 6.91418 16.0547C6.99658 15.8243 7.07895 15.5938 7.1613 15.3634C7.18931 15.285 7.21733 15.2066 7.24536 15.1283C7.28567 15.0155 7.32595 14.9028 7.36622 14.7901C7.39046 14.7223 7.4147 14.6545 7.43968 14.5846C7.48045 14.4695 7.52011 14.3541 7.55871 14.2383C7.24806 14.2325 6.93743 14.2282 6.62673 14.2254C6.52114 14.2242 6.41555 14.2226 6.30996 14.2206C6.15781 14.2177 6.00571 14.2164 5.85354 14.2154C5.80665 14.2142 5.75977 14.213 5.71146 14.2117C5.29613 14.2115 5.05794 14.3809 4.76681 14.6709ZM7.76745 18.2959C7.73237 18.3303 7.69728 18.3646 7.66114 18.4C7.61055 18.4504 7.61055 18.4504 7.55894 18.5019C7.51255 18.5479 7.51255 18.5479 7.46523 18.5949C7.31024 18.7767 7.24799 18.9409 7.24377 19.1785C7.24211 19.2205 7.24045 19.2626 7.23874 19.3059C7.33037 19.8052 7.75692 20.1458 8.10025 20.4867C8.15953 20.5461 8.21878 20.6056 8.278 20.665C8.40174 20.789 8.52578 20.9127 8.65005 21.0361C8.80879 21.1938 8.96672 21.3524 9.12442 21.5111C9.24646 21.6338 9.36891 21.756 9.49149 21.8782C9.54988 21.9364 9.60814 21.9948 9.66626 22.0534C9.74769 22.1352 9.82974 22.2165 9.91182 22.2977C9.95821 22.344 10.0046 22.3902 10.0524 22.4379C10.3324 22.6742 10.5839 22.77 10.9443 22.7538C11.4311 22.681 11.7502 22.2517 12.0704 21.914C11.9734 21.6627 11.7841 21.4945 11.5966 21.3088C11.5601 21.2722 11.5236 21.2356 11.486 21.1979C11.3655 21.0771 11.2445 20.9568 11.1235 20.8365C11.0398 20.7528 10.956 20.669 10.8722 20.5853C10.6968 20.4099 10.5212 20.2348 10.3454 20.0598C10.1196 19.835 9.89413 19.6097 9.6688 19.3843C9.49596 19.2115 9.32297 19.0389 9.14992 18.8662C9.06669 18.7832 8.9835 18.7001 8.90034 18.617C8.78447 18.5012 8.6684 18.3857 8.55227 18.2702C8.5176 18.2355 8.48293 18.2008 8.44721 18.1651C8.10706 17.8276 8.07472 17.9889 7.76745 18.2959ZM14.9381 22.7439C14.8211 22.7855 14.7039 22.8264 14.5866 22.8673C14.5126 22.8936 14.4385 22.9199 14.3645 22.9463C14.2968 22.9702 14.2292 22.9942 14.1594 23.0188C13.9966 23.0693 13.9966 23.0693 13.9454 23.2031C13.961 23.3194 13.961 23.3194 13.9961 23.4512C14.0149 23.5281 14.0149 23.5281 14.0341 23.6065C14.0481 23.6619 14.0621 23.7173 14.0766 23.7744C14.0907 23.8312 14.1048 23.888 14.1193 23.9465C14.1493 24.0667 14.1795 24.1869 14.2099 24.307C14.2565 24.4913 14.3021 24.6757 14.3477 24.8602C14.3769 24.9768 14.4062 25.0934 14.4355 25.2099C14.4491 25.2654 14.4628 25.3208 14.4769 25.3779C14.49 25.4291 14.5031 25.4803 14.5166 25.5331C14.5279 25.5783 14.5393 25.6235 14.551 25.6701C14.5852 25.7934 14.5852 25.7934 14.7071 25.8984C14.861 25.7532 15.0131 25.6063 15.1649 25.459C15.2082 25.4182 15.2514 25.3774 15.2959 25.3354C15.6243 25.0145 15.7952 24.7532 15.8397 24.2933C15.8381 24.2272 15.8366 24.1611 15.8351 24.093C15.8336 24.0182 15.8321 23.9435 15.8305 23.8664C15.8138 23.4106 15.7893 22.9552 15.7618 22.5C15.4839 22.5 15.1996 22.6507 14.9381 22.7439Z" fill="black"/>
<path d="M19.3359 8.32025C19.3862 8.33657 19.4365 8.35288 19.4883 8.36969C19.8729 8.50779 20.1841 8.71851 20.5078 8.96478C20.567 9.00708 20.6262 9.04938 20.6872 9.09296C21.1469 9.49129 21.4695 10.0417 21.6796 10.6054C21.6983 10.651 21.7169 10.6966 21.7362 10.7437C22.0478 11.6455 21.9149 12.7579 21.5185 13.6047C21.35 13.9233 21.1552 14.2018 20.9179 14.4726C20.8711 14.5266 20.8711 14.5266 20.8234 14.5818C20.1708 15.2843 19.2312 15.6438 18.2894 15.7159C17.1516 15.752 16.1652 15.3115 15.3405 14.5495C14.5836 13.7507 14.3109 12.8154 14.3247 11.7407C14.3614 10.7247 14.7634 9.87259 15.4687 9.14056C16.5434 8.20782 17.9764 7.85779 19.3359 8.32025ZM16.6607 10.7166C16.3343 11.1599 16.1871 11.6499 16.2597 12.1984C16.3888 12.7914 16.6797 13.1786 17.1679 13.5351C17.6243 13.7979 18.1295 13.835 18.6328 13.7036C19.2191 13.5102 19.5434 13.1044 19.8559 12.5939C20.016 12.177 19.9961 11.6059 19.8303 11.195C19.555 10.6822 19.1647 10.3652 18.6474 10.1183C17.9125 9.96289 17.1649 10.1387 16.6607 10.7166Z" fill="black"/>
<path d="M6.09479 23.5515C6.35789 23.7187 6.47476 23.895 6.56239 24.1992C6.60635 24.5186 6.5499 24.7427 6.38661 25.0195C6.27116 25.1588 6.14481 25.2854 6.01631 25.4125C5.97904 25.4501 5.94176 25.4877 5.90336 25.5264C5.78061 25.65 5.65723 25.7728 5.5338 25.8957C5.44802 25.9816 5.36227 26.0675 5.27655 26.1534C5.09705 26.3332 4.91724 26.5126 4.7372 26.6918C4.50654 26.9215 4.27667 27.1519 4.04703 27.3826C3.87021 27.5601 3.69298 27.7371 3.51561 27.914C3.43068 27.9988 3.34588 28.0838 3.26121 28.1689C3.14286 28.2877 3.02396 28.4059 2.90489 28.524C2.85264 28.5767 2.85264 28.5767 2.79934 28.6306C2.54806 28.8781 2.36227 28.9905 2.00307 29.0258C1.72766 29.0175 1.51238 28.9285 1.28896 28.7695C1.08203 28.5414 1.02281 28.3358 0.983398 28.0394C1.02074 27.5981 1.23065 27.3198 1.5339 27.0218C1.57032 26.9849 1.60674 26.9479 1.64427 26.9099C1.76398 26.7889 1.88473 26.669 2.00558 26.5491C2.08964 26.4649 2.17366 26.3806 2.25763 26.2962C2.43344 26.12 2.60977 25.9443 2.78649 25.7689C3.01242 25.5447 3.23701 25.3191 3.46123 25.0931C3.63438 24.9189 3.80822 24.7454 3.98227 24.5721C4.06535 24.4893 4.14821 24.4062 4.23084 24.3228C4.34664 24.2063 4.46334 24.0907 4.58032 23.9754C4.6308 23.924 4.6308 23.924 4.68229 23.8716C5.07757 23.4864 5.57088 23.3062 6.09479 23.5515Z" fill="black"/>
<path d="M4.10175 20.9181C4.36257 21.0461 4.52297 21.2075 4.68768 21.4454C4.78889 21.749 4.79445 22.0234 4.65491 22.3112C4.5074 22.5917 4.30439 22.8 4.08046 23.0213C4.03885 23.0631 3.99723 23.1049 3.95436 23.1481C3.86674 23.2358 3.77882 23.3233 3.69063 23.4105C3.55628 23.5436 3.42322 23.6779 3.29025 23.8124C3.2046 23.8979 3.11889 23.9833 3.0331 24.0686C2.99365 24.1086 2.95421 24.1485 2.91357 24.1896C2.62356 24.474 2.37941 24.6412 1.96674 24.6937C1.62748 24.652 1.38213 24.5313 1.14642 24.2836C1.02305 24.0911 0.986282 23.9368 0.981628 23.7123C0.979362 23.6473 0.979362 23.6473 0.977051 23.5811C1.03387 23.157 1.34039 22.8928 1.62959 22.6072C1.67431 22.5625 1.71902 22.5177 1.76509 22.4716C1.85939 22.3775 1.95391 22.2835 2.04863 22.1898C2.1936 22.0462 2.33776 21.9018 2.48183 21.7574C2.57368 21.6659 2.66558 21.5744 2.75752 21.483C2.80062 21.4398 2.84372 21.3967 2.88812 21.3522C2.92859 21.3123 2.96907 21.2724 3.01077 21.2312C3.04615 21.1961 3.08153 21.161 3.11798 21.1248C3.41413 20.8718 3.72734 20.8741 4.10175 20.9181Z" fill="black"/>
<path d="M8.56952 25.3201C8.81442 25.4871 8.98663 25.6705 9.08221 25.9573C9.11836 26.3838 9.02647 26.6746 8.75472 27.0095C8.64476 27.1286 8.5317 27.2434 8.4164 27.3574C8.37478 27.3992 8.33317 27.441 8.2903 27.4841C8.20267 27.5719 8.11476 27.6594 8.02657 27.7466C7.89221 27.8797 7.75916 28.014 7.62618 28.1485C7.54054 28.234 7.45483 28.3194 7.36903 28.4047C7.32959 28.4446 7.29015 28.4846 7.24951 28.5257C6.95894 28.8106 6.71447 28.9816 6.29901 29.0261C5.97426 28.9913 5.73069 28.9014 5.51532 28.6526C5.36803 28.4447 5.32273 28.2977 5.31757 28.0483C5.3153 27.9834 5.3153 27.9834 5.31299 27.9172C5.36968 27.494 5.67541 27.229 5.96347 26.9433C6.00805 26.8986 6.05262 26.8538 6.09855 26.8077C6.1926 26.7135 6.28687 26.6196 6.38135 26.5259C6.52577 26.3824 6.66923 26.238 6.81262 26.0935C6.90427 26.0019 6.99597 25.9105 7.08774 25.819C7.13053 25.7759 7.17333 25.7327 7.21742 25.6883C7.27812 25.6284 7.27812 25.6284 7.34005 25.5673C7.3753 25.5322 7.41055 25.4971 7.44687 25.4609C7.77784 25.196 8.18169 25.1858 8.56952 25.3201Z" fill="black"/>
</svg>
