<svg width="200" height="200" viewBox="0 0 200 200" fill="none" xmlns="http://www.w3.org/2000/svg">
<path d="M200 100C200 155.228 155.228 200 100 200C44.7715 200 0 155.228 0 100C0 44.7715 44.7715 0 100 0C155.228 0 200 44.7715 200 100Z" fill="#D9D9D9"/>
<path d="M139.706 65.4412C139.706 87.7762 121.6 105.882 99.2647 105.882C76.9297 105.882 58.8235 87.7762 58.8235 65.4412C58.8235 43.1061 76.9297 25 99.2647 25C121.6 25 139.706 43.1061 139.706 65.4412Z" fill="white"/>
<path d="M163.235 151.471C163.235 170.151 134.595 185.294 99.2647 185.294C63.9347 185.294 35.2941 170.151 35.2941 151.471C35.2941 132.79 63.9347 117.647 99.2647 117.647C134.595 117.647 163.235 132.79 163.235 151.471Z" fill="white"/>
</svg>
